<svg xmlns="http://www.w3.org/2000/svg" viewBox="0 0 660.77 109.24" style="color: white;">
  <path d="M2.66,92V8H16.1V42.2H53.3V8H66.74V92H53.3V58.64H16.1V92H2.66Z" transform="translate(-2.16 -1.5)" fill="none"
    stroke="currentColor" stroke-dasharray="0 144">
    <animate attributeName="stroke-dasharray" from="0 144" to="144 0" dur="1s" fill="freeze" />
    <animateTransform attributeName="transform" type="translate" values="0 -99; 0 0; 0 -5; 0 0; 0 0;"
      keyTimes="0; 0.42; 0.53; 0.63; 1" keySplines="0.88 0 1 1; 0.33 0 0.67 1; 0.33 0 0.67 1; 0.33 0 0.67 1"
      additive="sum" dur="1.233s" fill="freeze" />
  </path>
  <path d="M147.62,8V24.44H97V41.6h33.6V58H97V75.56h50.64V92H83.54V8h64.08Z" transform="translate(-2.16 -1.5)"
    fill="none" stroke="currentColor" stroke-dasharray="0 155">
    <animate attributeName="stroke-dasharray" from="0 155" to="155 0" dur="1s" fill="freeze" />
    <animateTransform attributeName="transform" type="translate" values="0 -99; 0 -99; 0 0; 0 -5; 0 0;"
      keyTimes="0; 0.05; 0.68; 0.84; 1" keySplines="0.33 0 0.67 1; 0.88 0 1 1; 0.33 0 0.67 1; 0.33 0 0.67 1"
      additive="sum" dur="0.821s" fill="freeze" />
  </path>
  <path d="M199.22,8l20.52,42.36L235.34,8h16.44l-31,84H204.38l9.48-25.92L185.78,8h13.44Z"
    transform="translate(-2.16 -1.5)" fill="none" stroke="currentColor" stroke-dasharray="0 106">
    <animate attributeName="stroke-dasharray" from="0 106" to="106 0" dur="1s" fill="freeze" />
    <animateTransform attributeName="transform" type="translate" values="0 -99; 0 -99; 0 0; 0 -5; 0 0;"
      keyTimes="0; 0.1; 0.7; 0.85; 1" keySplines="0.33 0 0.67 1; 0.88 0 1 1; 0.33 0 0.67 1; 0.33 0 0.67 1"
      additive="sum" dur="0.864s" fill="freeze" />
  </path>
  <path d="M273.74,24.44V92H260.3V8h50.16V24.44H273.74Z" transform="translate(-2.16 -1.5)" fill="none"
    stroke="currentColor" stroke-dasharray="0 89">
    <animate attributeName="stroke-dasharray" from="0 89" to="89 0" dur="1s" fill="freeze" />
    <animateTransform attributeName="transform" type="translate" values="0 -99; 0 -99; 0 0; 0 -5; 0 0;"
      keyTimes="0; 0.12; 0.71; 0.85; 1" keySplines="0.33 0 0.67 1; 0.88 0 1 1; 0.33 0 0.67 1; 0.33 0 0.67 1"
      additive="sum" dur="0.886s" fill="freeze" />
  </path>
  <path d="M307.1,92l28-84h27.12l28.08,84H376.82L369,68.48h-37.8L323.42,92H307.1Zm56.64-40L350.3,11.84,336.86,52h26.88Z"
    transform="translate(-2.16 -1.5)" fill="none" stroke="currentColor" stroke-dasharray="0 144">
    <animate attributeName="stroke-dasharray" from="0 144" to="144 0" dur="1s" fill="freeze" />
    <animateTransform attributeName="transform" type="translate" values="0 -99; 0 -99; 0 0; 0 -5; 0 0;"
      keyTimes="0; 0.14; 0.71; 0.86; 1" keySplines="0.33 0 0.67 1; 0.88 0 1 1; 0.33 0 0.67 1; 0.33 0 0.67 1"
      additive="sum" dur="0.907s" fill="freeze" />
  </path>
  <path
    d="M396.38,110.24V75.56h7.44c4.56-4.68,7.8-18.36,8.76-56L412.94,8h48.6V75.56h10v34.68H456.86V92H411v18.24H396.38ZM448.1,75.56V24.44H425.54v3.12c-0.48,22.44-3.24,37.68-7.2,48H448.1Z"
    transform="translate(-2.16 -1.5)" fill="none" stroke="currentColor" stroke-dasharray="0 180">
    <animate attributeName="stroke-dasharray" from="0 180" to="180 0" dur="1s" fill="freeze" />
    <animateTransform attributeName="transform" type="translate" values="0 -99; 0 -99; 0 0; 0 -5; 0 0;"
      keyTimes="0; 0.16; 0.72; 0.86; 1" keySplines="0.33 0 0.67 1; 0.88 0 1 1; 0.33 0 0.67 1; 0.33 0 0.67 1"
      additive="sum" dur="0.929s" fill="freeze" />
  </path>
  <path
    d="M477.74,92l28-84h27.12L560.9,92H547.46l-7.8-23.52h-37.8L494.06,92H477.74Zm56.64-40-13.44-40.2L507.5,52h26.88Z"
    transform="translate(-2.16 -1.5)" fill="none" stroke="currentColor" stroke-dasharray="0 144">
    <animate attributeName="stroke-dasharray" from="0 144" to="144 0" dur="1s" fill="freeze" />
    <animateTransform attributeName="transform" type="translate" values="0 -99; 0 -99; 0 0; 0 -5; 0 0;"
      keyTimes="0; 0.22; 0.74; 0.87; 1" keySplines="0.33 0 0.67 1; 0.88 0 1 1; 0.33 0 0.67 1; 0.33 0 0.67 1"
      additive="sum" dur="0.994s" fill="freeze" />
  </path>
  <path
    d="M568.7,76.88a13.77,13.77,0,0,0,5,1c6.6,0,10.44-6.24,12-58.32L586.22,8h46.2V92H619V24.44H598.82l-0.12,3.12C597.14,81,589,94.4,573.74,94.4a28.55,28.55,0,0,1-6.72-.84Z"
    transform="translate(-2.16 -1.5)" fill="none" stroke="currentColor" stroke-dasharray="0 138">
    <animate attributeName="stroke-dasharray" from="0 138" to="138 0" dur="1s" fill="freeze" />
    <animateTransform attributeName="transform" type="translate" values="0 -99; 0 -99; 0 0; 0 -5; 0 0;"
      keyTimes="0; 0.28; 0.76; 0.88; 1" keySplines="0.33 0 0.67 1; 0.88 0 1 1; 0.33 0 0.67 1; 0.33 0 0.67 1"
      additive="sum" dur="1.08s" fill="freeze" />
  </path>
  <path
    d="M646.1,70.4L647.54,2H661l1.44,68.4H646.1Zm8.28,6.36c4.8,0,8,3.24,8,8.16a8,8,0,0,1-16.08,0C646.34,80,649.58,76.76,654.38,76.76Z"
    transform="translate(-2.16 -1.5)" fill="none" stroke="currentColor" stroke-dasharray="0 72">
    <animate attributeName="stroke-dasharray" from="0 72" to="72 0" dur="1s" fill="freeze" />
    <animateTransform attributeName="transform" type="translate" values="0 -99; 0 -99; 0 0; 0 -5; 0 0;"
      keyTimes="0; 0.33; 0.78; 0.89; 1" keySplines="0.33 0 0.67 1; 0.88 0 1 1; 0.33 0 0.67 1; 0.33 0 0.67 1"
      additive="sum" dur="1.167s" fill="freeze" />
  </path>
</svg>
